<?xml version="1.0" standalone="no"?><!DOCTYPE svg PUBLIC "-//W3C//DTD SVG 1.1//EN" "http://www.w3.org/Graphics/SVG/1.1/DTD/svg11.dtd"><svg t="1597824075277" class="icon" viewBox="0 0 1024 1024" version="1.1" xmlns="http://www.w3.org/2000/svg" p-id="2217" xmlns:xlink="http://www.w3.org/1999/xlink" width="200" height="200"><defs><style type="text/css"></style></defs><path d="M1011.791218 512.692409c-25.867221-8.121898-49.789281-16.721554-72.653447-24.911703-120.122186-43.066534-215.025538-77.123903-416.84446 8.429028a17.131062 17.131062 0 0 0-0.30713 31.293194c107.325078 47.878246 178.340495 71.083668 253.450986 71.083669 66.442584 0 136.092976-18.15483 236.900061-53.543099a16.994559 16.994559 0 0 0-0.54601-32.351089z m-438.514229-0.068251c163.802981-61.050736 244.987833-31.975707 354.360448 7.302882 8.429028 3.003055 16.960434 6.074361 25.696592 9.145667-157.523866 51.086055-228.709912 47.571116-380.05704-16.448549z m-44.329182-34.808134c1.979286 0 3.958572-0.341256 5.869607-1.057894 170.628105-62.518138 229.870183-136.877866 315.900873-280.239599a17.06281 17.06281 0 0 0-20.065865-24.945829c-159.161896 53.611351-263.040286 146.160034-317.538903 282.867272a17.06281 17.06281 0 0 0 15.834288 23.37605z m266.589351-256.556418c-63.780786 100.875336-117.392136 159.025394-233.760503 208.30279 47.502864-93.845458 124.558516-162.437956 233.760503-208.30279zM443.633755 767.883802c0-51.632064 27.812381-203.491078 32.96535-231.303458a24.638698 24.638698 0 0 0 1.160271-7.575888 17.06281 17.06281 0 0 0-33.374857-4.948215c-16.141419 9.657551-87.702846 9.657551-103.844265 0a17.06281 17.06281 0 0 0-33.408983 4.948215c0 2.73005 0.375382 5.22122 1.160271 7.575888 5.187094 27.812381 32.999475 179.70552 32.999476 231.303458s-27.812381 203.491078-32.999476 231.303459a24.638698 24.638698 0 0 0-1.126145 7.575888 17.06281 17.06281 0 0 0 33.374857 4.948215c16.141419-9.657551 87.702846-9.657551 103.844265 0a17.06281 17.06281 0 0 0 16.312046 12.114595c0.511884 0 1.057894 0 1.603905-0.068251a17.028685 17.028685 0 0 0 15.458906-16.994559 24.638698 24.638698 0 0 0-1.126146-7.575888c-5.187094-27.812381-32.999475-179.671394-32.999475-231.303459z m-6.279114 206.221128c-15.11765-3.139557-31.839204-3.924446-44.909317-3.924447s-29.791667 0.784889-44.909318 3.924447c9.998807-56.068395 27.846507-162.233202 27.846507-206.221128s-17.8477-150.152732-27.846507-206.221127c15.11765 3.139557 31.87333 3.924446 44.909318 3.924446a230.347941 230.347941 0 0 0 44.909317-3.924446C427.355834 617.73107 409.508134 723.895877 409.508134 767.883802s17.8477 150.152732 27.846507 206.221128zM170.628787 460.753214a17.06281 17.06281 0 0 0-15.697785-16.994559 17.06281 17.06281 0 0 0-18.223082 14.059755c-4.948215 3.514939-23.000669 9.04329-51.427311 9.04329s-46.479096-5.528351-51.42731-9.04329a17.06281 17.06281 0 0 0-33.852616 2.934804c0 2.832427 0.375382 5.460099 1.09202 7.917144 5.22122 31.805079 33.033601 203.456952 33.033601 265.087823s-27.812381 233.282745-33.033601 265.087824a28.085386 28.085386 0 0 0-1.09202 7.917144 17.06281 17.06281 0 0 0 15.697785 16.994559 16.926308 16.926308 0 0 0 18.223082-14.059756c4.948215-3.514939 23.000669-9.04329 51.427311-9.043289s46.479096 5.528351 51.42731 9.043289a17.06281 17.06281 0 0 0 16.789806 14.128007c0.477759 0 0.921392 0 1.433276-0.068251A16.994559 16.994559 0 0 0 170.628787 1006.763149a28.085386 28.085386 0 0 0-1.092019-7.917144C164.315548 967.040926 136.503166 795.389053 136.503166 733.758181s27.812381-233.282745 33.033602-265.087823A26.925115 26.925115 0 0 0 170.628787 460.753214zM130.565308 971.37488c-17.506444-4.231577-36.104907-4.845838-45.250573-4.845838s-27.74413 0.614261-45.216448 4.811712c9.930556-62.688766 28.153637-185.131494 28.153638-237.582573s-18.223082-174.859682-28.153638-237.582573a204.139464 204.139464 0 0 0 45.216448 4.845838c9.111541 0 27.710004-0.614261 45.216448-4.845838C120.600627 558.864374 102.377545 681.307102 102.377545 733.758181s18.223082 174.893807 28.187763 237.616699zM443.633755 255.999488c0-51.632064 27.812381-203.491078 32.96535-231.303459A24.638698 24.638698 0 0 0 477.759376 17.120142a17.06281 17.06281 0 0 0-33.374857-4.948216c-16.141419 9.657551-87.702846 9.657551-103.844265 0A17.06281 17.06281 0 0 0 307.131271 17.120142c0 2.73005 0.375382 5.22122 1.160271 7.575887 5.187094 27.812381 32.999475 179.70552 32.999476 231.303459 0 51.597939-27.812381 203.491078-32.999476 231.303459a24.638698 24.638698 0 0 0-1.126145 7.575888 17.06281 17.06281 0 0 0 33.374857 4.948215c16.141419-9.657551 87.702846-9.657551 103.844265 0a17.06281 17.06281 0 0 0 16.312046 12.114595c0.511884 0 1.057894 0 1.603905-0.068251a17.028685 17.028685 0 0 0 15.458906-16.994559 24.638698 24.638698 0 0 0-1.126146-7.575888C471.446136 459.490566 443.633755 307.631553 443.633755 255.999488z m-6.279114 206.221127c-15.11765-3.139557-31.839204-3.924446-44.909317-3.924446s-29.791667 0.784889-44.909318 3.924446c9.998807-56.068395 27.846507-162.233202 27.846507-206.221127s-17.8477-150.152732-27.846507-206.221127c15.11765 3.139557 31.87333 3.924446 44.909318 3.924446a230.347941 230.347941 0 0 0 44.909317-3.924446C427.355834 105.846756 409.508134 212.011563 409.508134 255.999488s17.8477 150.152732 27.846507 206.221127z" p-id="2218"></path></svg>