<?xml version="1.0" standalone="no"?><!DOCTYPE svg PUBLIC "-//W3C//DTD SVG 1.1//EN" "http://www.w3.org/Graphics/SVG/1.1/DTD/svg11.dtd"><svg t="1598057150532" class="icon" viewBox="0 0 1582 1024" version="1.1" xmlns="http://www.w3.org/2000/svg" p-id="9657" xmlns:xlink="http://www.w3.org/1999/xlink" width="308.984375" height="200"><defs><style type="text/css"></style></defs><path d="M1444.072727 23.272727C1507.700364 23.272727 1559.272727 75.403636 1559.272727 139.636364v744.727272c0 64.232727-51.572364 116.363636-115.2 116.363637H464.989091a114.734545 114.734545 0 0 1-86.248727-39.191273l-326.562909-372.363636a117.248 117.248 0 0 1 0-154.344728l326.562909-372.363636A114.734545 114.734545 0 0 1 465.035636 23.272727h979.037091z m0 46.545455H464.989091c-19.781818 0-38.632727 8.564364-51.758546 23.505454l-326.516363 372.363637a70.330182 70.330182 0 0 0 0 92.625454l326.516363 372.363637c13.125818 14.941091 31.976727 23.505455 51.758546 23.505454h979.037091c38.167273 0 69.12-31.278545 69.12-69.818182V139.636364c0-38.539636-30.952727-69.818182-69.12-69.818182z" p-id="9658"></path><path d="M1221.352727 261.864727l3.304728 2.932364c10.658909 10.612364 11.636364 27.275636 2.932363 39.005091l-2.932363 3.351273-204.8 204.8 204.8 204.89309c10.658909 10.612364 11.636364 27.275636 2.932363 39.005091l-2.932363 3.351273a29.975273 29.975273 0 0 1-39.005091 2.932364l-3.351273-2.932364L977.454545 554.356364l-204.8 204.846545a29.975273 29.975273 0 0 1-39.098181 2.932364l-3.304728-2.932364a29.975273 29.975273 0 0 1-2.932363-39.005091l2.932363-3.351273 204.8-204.846545-204.8-204.8a29.975273 29.975273 0 0 1-2.932363-39.098182l2.932363-3.304727a29.975273 29.975273 0 0 1 39.005091-2.932364l3.351273 2.932364 204.846545 204.8 204.8-204.8a29.975273 29.975273 0 0 1 39.098182-2.932364z" p-id="9659"></path></svg>